Coordinates
version=1
nRows=12
nColumns=33
inDegrees=yes

Units are S.I. units (second, meters, Newtons, ...)
Angles are in degrees.

endheader
time	ground_thorax_rot_x	ground_thorax_rot_y	ground_thorax_rot_z	ground_thorax_tx	ground_thorax_ty	ground_thorax_tz	clav_prot_r	clav_elev_r	scapula_abduction_r	scapula_elevation_r	scapula_upward_rot_r	scapula_winging_r	shoulder_elv_r	plane_of_elev_r	axial_rot_r	elbow_flexion_r	pro_sup_r	wrist_flex_r	wrist_dev_r	clav_prot_l	clav_elev_l	scapula_abduction_l	scapula_elevation_l	scapula_upward_rot_l	scapula_winging_l	shoulder_elv_l	plane_of_elev_l	axial_rot_l	elbow_flexion_l	pro_sup_l	wrist_flex_l	wrist_dev_l
      7.90000000	     37.59120169	     15.72188746	     16.47034940	   -232.87468761	    831.59459735	      8.50440223	     11.99706214	     35.74037979	     34.83668796	     45.00000000	    -45.00000000	  -2604.55849606	  -1543.61015996	    143.70564241	    179.99999979	   2892.99849667	     54.56027044	     23.06457565	      6.98894164	      7.39025111	    -45.00000000	    -37.31249010	     45.00000000	    -41.10141232	   2259.78392490	  -1363.06160836	     21.67511876	    -51.57219477	    370.86216392	     10.29518023	      3.91235417	    -19.61283582
      7.91000000	     37.61279293	     15.63641416	     16.30036509	   -234.12617303	    831.80769641	      8.61016408	     12.04150255	     35.69695402	     34.71092574	     45.00000000	    -45.00000000	  -2604.55400822	  -1543.51704945	    143.74547000	    179.99999979	   2892.99389162	     55.06539239	     23.07162957	      6.89209872	      7.43268429	    -45.00000000	    -37.23049227	     45.00000000	    -41.11371585	   2259.88623093	  -1363.04702350	     21.68713519	    -52.01245947	    370.86499115	     11.10047228	      3.68015394	    -19.55303981
      7.92000000	     37.56606478	     15.73049146	     16.45367803	   -235.36553006	    831.99042173	      8.70753774	     12.19613963	     35.59967141	     34.48854932	     45.00000000	    -45.00000000	  -2604.53415268	  -1543.44817860	    143.78829953	    179.99999979	   2892.98342551	     55.86257817	     23.17088958	      6.85123396	      7.74058557	    -45.00000000	    -36.93242729	     45.00000000	    -42.78184109	   2259.96654048	  -1362.93083091	     22.07580760	    -51.57174318	    371.02927649	     12.32191866	      3.27399524	    -19.46404248
      7.93000000	     37.62725174	     15.44822247	     16.02840407	   -236.59129330	    832.13884230	      8.79542117	     11.91678766	     35.66673652	     34.55729016	     45.00000000	    -45.00000000	  -2604.53897189	  -1543.53645107	    143.86006159	    179.99999979	   2892.95721125	     56.26831912	     23.00729585	      6.59478326	      7.48667975	    -45.00000000	    -37.14039214	     45.00000000	    -41.94348281	   2259.90784536	  -1362.98007694	     21.73425194	    -51.52293295	    371.01689364	     13.18188361	      3.35690780	    -19.49343815
      7.94000000	     37.59634929	     15.34788706	     15.89595042	   -237.80689221	    832.24536973	      8.87107949	     11.92543733	     35.63708102	     34.40369685	     45.00000000	    -45.00000000	  -2604.51100706	  -1543.56371410	    143.88521791	    179.99999979	   2892.98114430	     56.67206078	     23.03145951	      6.52507630	      7.53245024	    -45.00000000	    -37.03901602	     45.00000000	    -41.95800121	   2260.01010078	  -1362.97252486	     21.73751199	    -51.91702858	    371.00272845	     14.07958915	      3.06512810	    -19.38599495
      7.95000000	     37.65334230	     15.17310902	     15.60734542	   -239.01037057	    832.30871922	      8.93636907	     11.80537992	     35.62811805	     34.30681937	     45.00000000	    -45.00000000	  -2604.48248416	  -1543.52873444	    143.91002978	    179.99999979	   2892.92506452	     57.01103173	     22.98541705	      6.42678461	      7.47119846	    -45.00000000	    -37.05836967	     45.00000000	    -41.76434862	   2259.99164902	  -1363.04687427	     21.63095675	    -52.10811735	    370.99186557	     14.90631642	      2.94094900	    -19.32301480
      7.96000000	     37.57920761	     15.16739028	     15.64748655	   -240.20316718	    832.32779108	      8.99360670	     11.83796918	     35.59214562	     34.18715262	     45.00000000	    -45.00000000	  -2604.47630625	  -1543.60695735	    144.01011610	    179.99999979	   2892.92405355	     57.36870542	     22.99291061	      6.37308132	      7.54884132	    -45.00000000	    -36.93662919	     45.00000000	    -42.24539352	   2260.10344803	  -1362.95242998	     21.72045395	    -52.15312124	    370.99774693	     15.83705141	      2.68714972	    -19.21445878
      7.97000000	     37.73686769	     14.67695781	     15.14990494	   -241.38556669	    832.30704885	      9.04751771	     11.66443901	     35.59316121	     34.02779352	     45.00000000	    -45.00000000	  -2604.40087385	  -1543.28729905	    143.75226228	    179.99999979	   2892.88761664	     57.65776596	     22.97818705	      6.29056971	      7.47333668	    -45.00000000	    -36.98654374	     45.00000000	    -41.83341018	   2260.02783970	  -1363.13821405	     21.52778113	    -52.28785481	    370.95346739	     16.67462712	      2.64864060	    -19.16106128
      7.98000000	     37.62214120	     14.81431802	     15.30830983	   -242.56576268	    832.24617664	      9.09827048	     11.70504329	     35.56668549	     33.87793943	     45.00000000	    -45.00000000	  -2604.37439132	  -1543.45527802	    143.91613817	    179.99999979	   2892.75569162	     57.97717971	     22.93254001	      6.25312219	      7.50894995	    -45.00000000	    -36.69721222	     45.00000000	    -42.41246149	   2260.17943668	  -1363.00495619	     21.70928325	    -52.44965409	    371.05119822	     17.50284792	      2.39893934	    -19.06148930
      7.99000000	     37.54858979	     15.02307723	     15.49007784	   -243.73653016	    832.14763616	      9.14424206	     11.78956988	     35.52160975	     33.80836198	     45.00000000	    -45.00000000	  -2604.40076508	  -1543.68727772	    144.22958912	    179.99999979	   2892.68628003	     58.46296607	     22.93885910	      6.20051855	      7.71935604	    -45.00000000	    -36.63839614	     45.00000000	    -43.48448484	   2260.19095210	  -1362.97239355	     21.90264122	    -52.02823027	    371.11715615	     18.81057940	      2.12287597	    -18.92228544
      8.00000000	     37.57388024	     14.87590672	     15.42528764	   -244.90370218	    832.01404348	      9.18399625	     11.84722469	     35.47815673	     33.54760770	     45.00000000	    -45.00000000	  -2604.33808194	  -1543.50365725	    144.10979158	    179.99999979	   2892.65439758	     59.08977333	     23.04634223	      6.16661878	      7.92076173	    -45.00000000	    -36.34911941	     45.00000000	    -44.52696200	   2260.15598010	  -1363.00405320	     22.22015626	    -51.46137716	    371.10229425	     20.61142593	      1.80474795	    -18.73374301
      8.01000000	     37.52665019	     14.77267925	     15.38243303	   -246.05773290	    831.85037459	      9.21541311	     11.76151467	     35.46842720	     33.47637710	     45.00000000	    -45.00000000	  -2604.29800294	  -1543.61985971	    144.21610487	    179.99999979	   2892.62333506	     59.57672829	     22.96331924	      6.03298716	      7.84479949	    -45.00000000	    -36.32398050	     45.00000000	    -44.34367434	   2260.23951686	  -1363.00619033	     22.10451145	    -51.49731342	    371.14940285	     22.13006660	      1.70283409	    -18.66129840
